<svg width="544" height="523" viewBox="0 0 544 523" fill="none" xmlns="http://www.w3.org/2000/svg">
<path d="M543 261C543 405.146 421.445 522 271.5 522C121.555 522 0 405.146 0 261C0 116.854 121.555 0 271.5 0C421.445 0 543 116.854 543 261Z" fill="black"/>
<path d="M528.954 261.14H543.203C543.203 405.372 421.671 522.28 271.618 522.28C121.565 522.28 0.0111505 405.372 7.66628e-07 261.14C-0.0111489 116.908 121.599 0.0107203 271.618 7.36987e-07C421.638 -0.0107189 543.203 116.919 543.203 261.14H514.682C514.682 214.921 500.427 169.74 473.718 131.31C447.01 92.8808 409.049 62.9285 364.635 45.2413C320.221 27.554 271.349 22.9262 224.199 31.9431C177.049 40.96 133.739 63.2165 99.7461 95.8983C65.7531 128.58 42.6035 170.219 33.2248 215.55C23.8462 260.881 28.6596 307.867 47.0565 350.568C65.4535 393.269 96.6076 429.766 136.579 455.444C176.551 481.122 223.545 494.827 271.618 494.827C336.057 494.748 397.834 470.102 443.399 426.294C488.964 382.486 514.599 323.093 514.682 261.14H528.954Z" fill="url(#paint0_linear_5358_40)"/>
<path d="M409.406 222.957C387.821 178.46 353.714 158.35 343.545 158.114C333.376 157.878 329.853 161.33 315.503 168.394C301.154 175.458 286.759 180.711 271.73 180.561C256.7 180.411 238.035 174.129 223.786 165.371C209.537 156.613 200.706 157.867 200.706 157.867C183.324 160.29 164.113 182.79 164.113 182.79C134.555 216.386 125.769 244.417 120.629 261.558C99.3662 332.725 119.971 362.762 131.6 363.394C139.093 363.801 165.752 346.404 165.752 346.404C165.752 346.404 339.453 221.306 344.314 218.444C357.582 210.64 368.186 223.611 373.549 232.572C384.866 251.471 398.234 277.97 378.522 287.885C353.256 300.588 291.353 282.526 291.353 282.526L260 306.366C260 306.366 371.364 358.71 409.484 364.252C446.435 369.612 431.015 267.454 409.406 222.957ZM204.419 284.123C197.19 284.123 190.124 282.062 184.113 278.201C178.103 274.34 173.418 268.852 170.652 262.431C167.886 256.01 167.162 248.945 168.572 242.129C169.983 235.312 173.464 229.051 178.575 224.137C183.686 219.223 190.199 215.876 197.289 214.52C204.378 213.164 211.727 213.86 218.405 216.52C225.084 219.179 230.792 223.683 234.808 229.462C238.824 235.24 240.968 242.034 240.968 248.984C240.968 258.303 237.117 267.241 230.263 273.831C223.409 280.421 214.112 284.123 204.419 284.123V284.123Z" fill="white"/>
<defs>
<linearGradient id="paint0_linear_5358_40" x1="4.54106" y1="262.856" x2="552.781" y2="262.856" gradientUnits="userSpaceOnUse">
<stop stop-color="#AD85FF"/>
<stop offset="0.14" stop-color="#A578FF"/>
<stop offset="0.29" stop-color="#9D6AFF"/>
<stop offset="0.43" stop-color="#945CFF"/>
<stop offset="0.57" stop-color="#8C4DFF"/>
<stop offset="0.71" stop-color="#833CFF"/>
<stop offset="0.86" stop-color="#7A28FF"/>
<stop offset="1" stop-color="#7001FE"/>
</linearGradient>
</defs>
</svg>
